<svg width="220" height="60" viewBox="0 0 220 60" xmlns="http://www.w3.org/2000/svg">
  <!-- Red Square with Rounded Corners -->
  <rect x="0" y="5" width="50" height="50" rx="6" fill="#E52B2B"/>
  
  <!-- Left C shape -->
  <path d="M 12 15 L 12 20 L 18 20 L 18 25 L 12 25 L 12 30 L 18 30 L 18 35 L 12 35 L 12 40 L 18 40 L 18 45 L 12 45 L 12 50 L 20 50 L 20 15 Z" fill="white"/>
  
  <!-- Right C shape (facing left) -->
  <path d="M 38 15 L 38 20 L 32 20 L 32 25 L 38 25 L 38 30 L 32 30 L 32 35 L 38 35 L 38 40 L 32 40 L 32 45 L 38 45 L 38 50 L 30 50 L 30 15 Z" fill="white"/>
  
  <!-- Horizontal connecting bar between the C shapes -->
  <rect x="20" y="27" width="10" height="6" fill="white"/>
  
  <!-- Text: REDEEMER -->
  <text x="60" y="28" font-family="Arial, sans-serif" font-size="13" font-weight="500" fill="#5A6B7C" letter-spacing="0.5">
    REDEEMER
  </text>
  
  <!-- Text: CITY to CITY -->
  <text x="60" y="48" font-family="Arial, sans-serif" font-size="17" font-weight="700" fill="#2D3740" letter-spacing="0.3">
    <tspan>CITY </tspan>
    <tspan font-weight="500" font-size="15">to </tspan>
    <tspan>CITY</tspan>
  </text>
</svg>
